<mxfile host="app.diagrams.net" modified="2021-07-13T05:50:38.820Z" agent="5.0 (Windows NT 10.0; Win64; x64) AppleWebKit/537.36 (KHTML, like Gecko) Chrome/91.0.4472.124 Safari/537.36" etag="SYCHoQHqcuX1PVPk3qQx" version="14.8.5" type="github" pages="2">
  <diagram id="j8p6b92bLePDRZEin-ZR" name="ページ1">
    <mxGraphModel dx="796" dy="450" grid="1" gridSize="10" guides="1" tooltips="1" connect="1" arrows="1" fold="1" page="1" pageScale="1" pageWidth="1169" pageHeight="827" math="0" shadow="0">
      <root>
        <mxCell id="0" />
        <mxCell id="1" parent="0" />
        <mxCell id="DRXtgYTk0A-DrvqbZUSx-12" value="" style="html=1;shadow=0;dashed=0;shape=mxgraph.bootstrap.rrect;rSize=5;strokeColor=#DFDFDF;html=1;whiteSpace=wrap;fillColor=#FFFFFF;fontColor=#000000;" parent="1" vertex="1">
          <mxGeometry x="90" y="201" width="940" height="470" as="geometry" />
        </mxCell>
        <mxCell id="DRXtgYTk0A-DrvqbZUSx-13" value="&lt;font style=&quot;font-size: 18px&quot;&gt;苦手問題を克服しょう！&lt;/font&gt;" style="html=1;shadow=0;dashed=0;shape=mxgraph.bootstrap.topButton;strokeColor=inherit;fillColor=#F7F7F7;rSize=5;perimeter=none;whiteSpace=wrap;resizeWidth=1;align=center;spacing=20;fontSize=15;" parent="DRXtgYTk0A-DrvqbZUSx-12" vertex="1">
          <mxGeometry width="920.0000000000001" height="40" relative="1" as="geometry" />
        </mxCell>
        <mxCell id="DRXtgYTk0A-DrvqbZUSx-16" value="" style="html=1;shadow=0;dashed=0;shape=mxgraph.bootstrap.bottomButton;strokeColor=inherit;fillColor=#F7F7F7;rSize=5;perimeter=none;whiteSpace=wrap;resizeWidth=1;align=center;spacing=20;fontSize=14;fontColor=#818181;" parent="DRXtgYTk0A-DrvqbZUSx-12" vertex="1">
          <mxGeometry y="1" width="940" height="40" relative="1" as="geometry">
            <mxPoint y="-40" as="offset" />
          </mxGeometry>
        </mxCell>
        <mxCell id="DRXtgYTk0A-DrvqbZUSx-27" value="ログインID（E-mailアドレス）" style="fillColor=none;strokeColor=none;align=left;fontSize=18;fontColor=#666666;" parent="DRXtgYTk0A-DrvqbZUSx-12" vertex="1">
          <mxGeometry width="260" height="40" relative="1" as="geometry">
            <mxPoint x="160" y="129" as="offset" />
          </mxGeometry>
        </mxCell>
        <mxCell id="DRXtgYTk0A-DrvqbZUSx-28" value="" style="html=1;shadow=0;dashed=0;shape=mxgraph.bootstrap.rrect;rSize=5;fillColor=none;strokeColor=#999999;align=left;spacing=15;fontSize=14;fontColor=#6C767D;" parent="DRXtgYTk0A-DrvqbZUSx-12" vertex="1">
          <mxGeometry width="620" height="40" relative="1" as="geometry">
            <mxPoint x="160" y="169" as="offset" />
          </mxGeometry>
        </mxCell>
        <mxCell id="DRXtgYTk0A-DrvqbZUSx-29" value="ログインID・パスワードを忘れた場合はこちら" style="fillColor=none;strokeColor=none;align=left;spacing=2;fontSize=13;fontColor=#3399FF;" parent="DRXtgYTk0A-DrvqbZUSx-12" vertex="1">
          <mxGeometry width="280" height="30" relative="1" as="geometry">
            <mxPoint x="160" y="297" as="offset" />
          </mxGeometry>
        </mxCell>
        <mxCell id="DRXtgYTk0A-DrvqbZUSx-30" value="パスワード" style="fillColor=none;strokeColor=none;align=left;fontSize=18;fontColor=#666666;" parent="DRXtgYTk0A-DrvqbZUSx-12" vertex="1">
          <mxGeometry width="260" height="40" relative="1" as="geometry">
            <mxPoint x="160" y="212" as="offset" />
          </mxGeometry>
        </mxCell>
        <mxCell id="DRXtgYTk0A-DrvqbZUSx-31" value="" style="html=1;shadow=0;dashed=0;shape=mxgraph.bootstrap.rrect;rSize=5;fillColor=none;strokeColor=#999999;align=left;spacing=15;fontSize=14;fontColor=#6C767D;" parent="DRXtgYTk0A-DrvqbZUSx-12" vertex="1">
          <mxGeometry width="620" height="40" relative="1" as="geometry">
            <mxPoint x="160" y="252" as="offset" />
          </mxGeometry>
        </mxCell>
        <mxCell id="DRXtgYTk0A-DrvqbZUSx-33" value="ログイン" style="html=1;shadow=0;dashed=0;shape=mxgraph.bootstrap.rrect;rSize=5;fillColor=#0085FC;strokeColor=none;align=center;fontSize=14;fontColor=#FFFFFF;" parent="DRXtgYTk0A-DrvqbZUSx-12" vertex="1">
          <mxGeometry width="100" height="40" relative="1" as="geometry">
            <mxPoint x="160" y="343" as="offset" />
          </mxGeometry>
        </mxCell>
        <mxCell id="DRXtgYTk0A-DrvqbZUSx-38" value="&lt;span style=&quot;font-size: 16px&quot;&gt;ログインIDもしくはパスワードが違います！&lt;/span&gt;" style="html=1;shadow=0;dashed=0;shape=mxgraph.bootstrap.rrect;rSize=5;strokeColor=#FFECBC;strokeWidth=1;fillColor=#FFF1CF;fontColor=#856110;whiteSpace=wrap;align=left;verticalAlign=middle;spacingLeft=10;fontSize=13;" parent="DRXtgYTk0A-DrvqbZUSx-12" vertex="1">
          <mxGeometry x="160" y="69.3" width="620" height="40" as="geometry" />
        </mxCell>
        <mxCell id="DRXtgYTk0A-DrvqbZUSx-18" value="&lt;font face=&quot;Lucida Console&quot; style=&quot;font-size: 45px&quot;&gt;■ ログイン画面&lt;/font&gt;" style="text;html=1;resizable=0;autosize=1;align=left;verticalAlign=middle;points=[];fillColor=none;strokeColor=none;rounded=0;fontColor=#666666;" parent="1" vertex="1">
          <mxGeometry x="80" y="50" width="340" height="30" as="geometry" />
        </mxCell>
        <mxCell id="DRXtgYTk0A-DrvqbZUSx-50" value="&lt;blockquote style=&quot;margin: 0 0 0 40px ; border: none ; padding: 0px&quot;&gt;&lt;font color=&quot;#36393d&quot;&gt;ログインが出来たら&lt;/font&gt;&lt;/blockquote&gt;&lt;blockquote style=&quot;margin: 0 0 0 40px ; border: none ; padding: 0px&quot;&gt;&lt;font color=&quot;#36393d&quot;&gt;〇－〇のトップページへ行く&lt;/font&gt;&lt;/blockquote&gt;" style="whiteSpace=wrap;html=1;shape=mxgraph.basic.rectCallout;dx=30;dy=15;boundedLbl=1;fontSize=22;direction=south;strokeColor=#36393d;align=left;fillColor=#ffff88;" parent="1" vertex="1">
          <mxGeometry x="370" y="570" width="530" height="160" as="geometry" />
        </mxCell>
        <mxCell id="DRXtgYTk0A-DrvqbZUSx-40" value="&lt;blockquote style=&quot;margin: 0 0 0 40px ; border: none ; padding: 0px&quot;&gt;ログインIDもしくは&lt;br&gt;パスワードが違う時だけ&lt;div&gt;&lt;span&gt;表示する。&lt;/span&gt;&lt;/div&gt;&lt;/blockquote&gt;" style="whiteSpace=wrap;html=1;shape=mxgraph.basic.rectCallout;dx=30;dy=15;boundedLbl=1;fontSize=22;strokeColor=#36393d;align=left;fillColor=#ffff88;" parent="1" vertex="1">
          <mxGeometry x="800" y="101" width="323.6" height="169.3" as="geometry" />
        </mxCell>
      </root>
    </mxGraphModel>
  </diagram>
  <diagram id="5g8d9vBgnRIc4ZsRijdH" name="ページ2">
    <mxGraphModel dx="1592" dy="900" grid="1" gridSize="10" guides="1" tooltips="1" connect="1" arrows="1" fold="1" page="1" pageScale="1" pageWidth="1169" pageHeight="827" math="0" shadow="0">
      <root>
        <mxCell id="LzhJ9Gyvr20koei1Hah8-0" />
        <mxCell id="LzhJ9Gyvr20koei1Hah8-1" parent="LzhJ9Gyvr20koei1Hah8-0" />
        <mxCell id="wFB6lsDcp62l5bIBL-6_-8" value="" style="html=1;verticalLabelPosition=bottom;labelBackgroundColor=#ffffff;verticalAlign=top;shadow=0;dashed=0;strokeWidth=1;shape=mxgraph.ios7.misc.ipad10inch;fontSize=30;" vertex="1" parent="LzhJ9Gyvr20koei1Hah8-1">
          <mxGeometry x="578" y="37" width="560" height="760" as="geometry" />
        </mxCell>
        <mxCell id="wFB6lsDcp62l5bIBL-6_-10" value="" style="group" vertex="1" connectable="0" parent="LzhJ9Gyvr20koei1Hah8-1">
          <mxGeometry x="620" y="110" width="470" height="640" as="geometry" />
        </mxCell>
        <mxCell id="DAOYBA_M9g7fLnit4X4x-3" value="" style="html=1;shadow=0;dashed=0;shape=mxgraph.bootstrap.rrect;rSize=5;strokeColor=#6c8ebf;html=1;whiteSpace=wrap;fillColor=#dae8fc;verticalAlign=bottom;align=left;spacing=20;spacingBottom=0;fontSize=14;" vertex="1" parent="wFB6lsDcp62l5bIBL-6_-10">
          <mxGeometry y="29.7" width="470" height="340.3" as="geometry" />
        </mxCell>
        <mxCell id="DAOYBA_M9g7fLnit4X4x-4" value="学習ルームへようこそ！目標にまた一歩近づいたね！" style="html=1;shadow=0;dashed=0;shape=mxgraph.bootstrap.topButton;rSize=5;perimeter=none;whiteSpace=wrap;fillColor=#0081F4;strokeColor=#0071D5;fontColor=#ffffff;resizeWidth=1;fontSize=18;align=left;spacing=20;" vertex="1" parent="DAOYBA_M9g7fLnit4X4x-3">
          <mxGeometry width="470" height="50" relative="1" as="geometry" />
        </mxCell>
        <mxCell id="DAOYBA_M9g7fLnit4X4x-6" value="&lt;p style=&quot;line-height: 120%&quot;&gt;&lt;/p&gt;&lt;h1&gt;〇〇高校絶対合格！&lt;/h1&gt;&lt;p&gt;2022年3月9日まで　あと　　　　　日！&lt;/p&gt;&lt;p&gt;&lt;font style=&quot;font-size: 22px&quot;&gt;将来〇〇になりたい。&lt;/font&gt;&lt;/p&gt;&lt;p&gt;&lt;font style=&quot;font-size: 22px&quot;&gt;その為に〇〇大学に行きたい。&lt;/font&gt;&lt;/p&gt;&lt;p&gt;&lt;font style=&quot;font-size: 22px&quot;&gt;その為に絶対合格するんだ！&lt;/font&gt;&lt;/p&gt;&lt;p&gt;&lt;/p&gt;" style="text;html=1;strokeColor=none;fillColor=none;spacing=5;spacingTop=-20;whiteSpace=wrap;overflow=hidden;rounded=0;fontSize=22;fontColor=#36393D;" vertex="1" parent="DAOYBA_M9g7fLnit4X4x-3">
          <mxGeometry x="12.21" y="50" width="439.71" height="280" as="geometry" />
        </mxCell>
        <mxCell id="DAOYBA_M9g7fLnit4X4x-7" value="239" style="text;html=1;strokeColor=none;fillColor=none;align=center;verticalAlign=middle;whiteSpace=wrap;rounded=0;fontSize=50;fontColor=#36393D;" vertex="1" parent="DAOYBA_M9g7fLnit4X4x-3">
          <mxGeometry x="308.0023076923077" y="150.30241379310345" width="36.15384615384615" height="11.734482758620691" as="geometry" />
        </mxCell>
        <mxCell id="DAOYBA_M9g7fLnit4X4x-26" value="早速問題にチャレンジ！" style="html=1;shadow=0;dashed=0;shape=mxgraph.bootstrap.rrect;rSize=5;strokeColor=none;strokeWidth=1;fillColor=#0085FC;fontColor=#FFFFFF;whiteSpace=wrap;align=center;verticalAlign=middle;spacingLeft=0;fontStyle=0;fontSize=30;spacing=5;" vertex="1" parent="wFB6lsDcp62l5bIBL-6_-10">
          <mxGeometry y="382.28" width="470" height="55" as="geometry" />
        </mxCell>
        <mxCell id="DAOYBA_M9g7fLnit4X4x-28" value="新しい問題を登録する" style="html=1;shadow=0;dashed=0;shape=mxgraph.bootstrap.rrect;rSize=5;strokeColor=none;strokeWidth=1;fillColor=#0085FC;fontColor=#FFFFFF;whiteSpace=wrap;align=center;verticalAlign=middle;spacingLeft=0;fontStyle=0;fontSize=30;spacing=5;" vertex="1" parent="wFB6lsDcp62l5bIBL-6_-10">
          <mxGeometry y="451" width="470" height="55" as="geometry" />
        </mxCell>
        <mxCell id="DAOYBA_M9g7fLnit4X4x-29" value="目標を登録する" style="html=1;shadow=0;dashed=0;shape=mxgraph.bootstrap.rrect;rSize=5;strokeColor=none;strokeWidth=1;fillColor=#0085FC;fontColor=#FFFFFF;whiteSpace=wrap;align=center;verticalAlign=middle;spacingLeft=0;fontStyle=0;fontSize=30;spacing=5;" vertex="1" parent="wFB6lsDcp62l5bIBL-6_-10">
          <mxGeometry y="520" width="470" height="55" as="geometry" />
        </mxCell>
        <mxCell id="wFB6lsDcp62l5bIBL-6_-0" value="こんばんは！〇〇さん" style="text;html=1;strokeColor=none;fillColor=none;align=left;verticalAlign=middle;whiteSpace=wrap;rounded=0;fontSize=25;fontColor=#0085FC;fontStyle=1" vertex="1" parent="wFB6lsDcp62l5bIBL-6_-10">
          <mxGeometry width="297.3469387755102" height="19.16167664670659" as="geometry" />
        </mxCell>
        <mxCell id="wFB6lsDcp62l5bIBL-6_-1" value="ユーザー情報を修正" style="text;html=1;strokeColor=none;fillColor=none;align=left;verticalAlign=middle;whiteSpace=wrap;rounded=0;fontSize=25;fontColor=#0085FC;fontStyle=4" vertex="1" parent="wFB6lsDcp62l5bIBL-6_-10">
          <mxGeometry y="588.8383233532934" width="297.3469387755102" height="19.16167664670659" as="geometry" />
        </mxCell>
        <mxCell id="wFB6lsDcp62l5bIBL-6_-3" value="ログアウト" style="text;html=1;strokeColor=none;fillColor=none;align=right;verticalAlign=middle;whiteSpace=wrap;rounded=0;fontSize=25;fontColor=#0085FC;fontStyle=4" vertex="1" parent="wFB6lsDcp62l5bIBL-6_-10">
          <mxGeometry x="172.6530612244898" y="588.8383233532934" width="297.3469387755102" height="19.16167664670659" as="geometry" />
        </mxCell>
        <mxCell id="DAOYBA_M9g7fLnit4X4x-21" value="試験日までの期間を具体的に" style="text;html=1;strokeColor=none;fillColor=none;align=left;verticalAlign=middle;whiteSpace=wrap;rounded=0;fontSize=25;fontColor=#36393D;" vertex="1" parent="LzhJ9Gyvr20koei1Hah8-1">
          <mxGeometry x="120" y="290" width="360" height="20" as="geometry" />
        </mxCell>
        <mxCell id="NFRZWmRRR19jdyB0aX4f-0" value="&lt;font face=&quot;Lucida Console&quot; style=&quot;font-size: 45px&quot;&gt;■ トップページ&lt;/font&gt;" style="text;html=1;resizable=0;autosize=1;align=left;verticalAlign=middle;points=[];fillColor=none;strokeColor=none;rounded=0;fontColor=#666666;" parent="LzhJ9Gyvr20koei1Hah8-1" vertex="1">
          <mxGeometry x="80" y="50" width="340" height="30" as="geometry" />
        </mxCell>
        <mxCell id="DAOYBA_M9g7fLnit4X4x-14" value="ウエルカムメッセージ" style="text;html=1;strokeColor=none;fillColor=none;align=left;verticalAlign=middle;whiteSpace=wrap;rounded=0;fontSize=25;fontColor=#36393D;" vertex="1" parent="LzhJ9Gyvr20koei1Hah8-1">
          <mxGeometry x="121" y="152" width="310" height="20" as="geometry" />
        </mxCell>
        <mxCell id="DAOYBA_M9g7fLnit4X4x-18" value="現在の頑張り目標を表示" style="text;html=1;strokeColor=none;fillColor=none;align=left;verticalAlign=middle;whiteSpace=wrap;rounded=0;fontSize=25;fontColor=#36393D;" vertex="1" parent="LzhJ9Gyvr20koei1Hah8-1">
          <mxGeometry x="122" y="220" width="310" height="20" as="geometry" />
        </mxCell>
        <mxCell id="DAOYBA_M9g7fLnit4X4x-23" value="何故頑張るのか明確にして&lt;br&gt;目的を認識するメッセージを表示" style="text;html=1;strokeColor=none;fillColor=none;align=left;verticalAlign=top;whiteSpace=wrap;rounded=0;fontSize=25;fontColor=#36393D;" vertex="1" parent="LzhJ9Gyvr20koei1Hah8-1">
          <mxGeometry x="120" y="381" width="400" height="20" as="geometry" />
        </mxCell>
        <mxCell id="DAOYBA_M9g7fLnit4X4x-10" value="" style="endArrow=classic;html=1;fontSize=50;fontColor=#36393D;" edge="1" parent="LzhJ9Gyvr20koei1Hah8-1">
          <mxGeometry x="450" y="163" width="50" height="50" as="geometry">
            <mxPoint x="450" y="163" as="sourcePoint" />
            <mxPoint x="627.9999999999997" y="163" as="targetPoint" />
          </mxGeometry>
        </mxCell>
        <mxCell id="DAOYBA_M9g7fLnit4X4x-19" value="" style="endArrow=classic;html=1;fontSize=50;fontColor=#36393D;" edge="1" parent="LzhJ9Gyvr20koei1Hah8-1">
          <mxGeometry x="450" y="161" width="50" height="50" as="geometry">
            <mxPoint x="450.0000000000003" y="231" as="sourcePoint" />
            <mxPoint x="628" y="231" as="targetPoint" />
          </mxGeometry>
        </mxCell>
        <mxCell id="DAOYBA_M9g7fLnit4X4x-20" value="" style="endArrow=classic;html=1;fontSize=50;fontColor=#36393D;" edge="1" parent="LzhJ9Gyvr20koei1Hah8-1">
          <mxGeometry x="450" y="157" width="50" height="50" as="geometry">
            <mxPoint x="450.0000000000003" y="299.17" as="sourcePoint" />
            <mxPoint x="628" y="299.17" as="targetPoint" />
          </mxGeometry>
        </mxCell>
        <mxCell id="DAOYBA_M9g7fLnit4X4x-22" value="" style="endArrow=classic;html=1;fontSize=50;fontColor=#36393D;" edge="1" parent="LzhJ9Gyvr20koei1Hah8-1">
          <mxGeometry x="450" y="157" width="50" height="50" as="geometry">
            <mxPoint x="450.0000000000003" y="401.00000000000006" as="sourcePoint" />
            <mxPoint x="628" y="401.00000000000006" as="targetPoint" />
            <Array as="points">
              <mxPoint x="621.1538461538458" y="401" />
            </Array>
          </mxGeometry>
        </mxCell>
        <mxCell id="wFB6lsDcp62l5bIBL-6_-17" value="" style="endArrow=classic;html=1;fontSize=50;fontColor=#36393D;" edge="1" parent="LzhJ9Gyvr20koei1Hah8-1">
          <mxGeometry x="450" y="276" width="50" height="50" as="geometry">
            <mxPoint x="450.0000000000002" y="520" as="sourcePoint" />
            <mxPoint x="628" y="520" as="targetPoint" />
            <Array as="points">
              <mxPoint x="621.1538461538458" y="520" />
            </Array>
          </mxGeometry>
        </mxCell>
        <mxCell id="wFB6lsDcp62l5bIBL-6_-18" value="" style="endArrow=classic;html=1;fontSize=50;fontColor=#36393D;" edge="1" parent="LzhJ9Gyvr20koei1Hah8-1">
          <mxGeometry x="450" y="344" width="50" height="50" as="geometry">
            <mxPoint x="450.0000000000002" y="588" as="sourcePoint" />
            <mxPoint x="628" y="588" as="targetPoint" />
            <Array as="points">
              <mxPoint x="621.1538461538458" y="588" />
            </Array>
          </mxGeometry>
        </mxCell>
        <mxCell id="wFB6lsDcp62l5bIBL-6_-19" value="" style="endArrow=classic;html=1;fontSize=50;fontColor=#36393D;" edge="1" parent="LzhJ9Gyvr20koei1Hah8-1">
          <mxGeometry x="450" y="416" width="50" height="50" as="geometry">
            <mxPoint x="450.0000000000002" y="660" as="sourcePoint" />
            <mxPoint x="628" y="660" as="targetPoint" />
            <Array as="points">
              <mxPoint x="621.1538461538458" y="660" />
            </Array>
          </mxGeometry>
        </mxCell>
        <mxCell id="wFB6lsDcp62l5bIBL-6_-20" value="" style="endArrow=classic;html=1;fontSize=50;fontColor=#36393D;" edge="1" parent="LzhJ9Gyvr20koei1Hah8-1">
          <mxGeometry x="444" y="466" width="50" height="50" as="geometry">
            <mxPoint x="463" y="710" as="sourcePoint" />
            <mxPoint x="622" y="710" as="targetPoint" />
            <Array as="points">
              <mxPoint x="615.1538461538458" y="710" />
            </Array>
          </mxGeometry>
        </mxCell>
        <mxCell id="wFB6lsDcp62l5bIBL-6_-22" value="〇〇問題チャレンジへ移動" style="text;html=1;strokeColor=none;fillColor=none;align=left;verticalAlign=middle;whiteSpace=wrap;rounded=0;fontSize=25;fontColor=#36393D;" vertex="1" parent="LzhJ9Gyvr20koei1Hah8-1">
          <mxGeometry x="120" y="510" width="360" height="20" as="geometry" />
        </mxCell>
        <mxCell id="wFB6lsDcp62l5bIBL-6_-23" value="〇〇問題登録画面へ移動" style="text;html=1;strokeColor=none;fillColor=none;align=left;verticalAlign=middle;whiteSpace=wrap;rounded=0;fontSize=25;fontColor=#36393D;" vertex="1" parent="LzhJ9Gyvr20koei1Hah8-1">
          <mxGeometry x="122" y="577" width="360" height="20" as="geometry" />
        </mxCell>
        <mxCell id="wFB6lsDcp62l5bIBL-6_-24" value="〇〇目標登録画面へ移動" style="text;html=1;strokeColor=none;fillColor=none;align=left;verticalAlign=middle;whiteSpace=wrap;rounded=0;fontSize=25;fontColor=#36393D;" vertex="1" parent="LzhJ9Gyvr20koei1Hah8-1">
          <mxGeometry x="122" y="650" width="360" height="20" as="geometry" />
        </mxCell>
        <mxCell id="wFB6lsDcp62l5bIBL-6_-25" value="〇〇ユーザー情報画面へ移動&lt;br&gt;ログアウト画面へ移動&lt;br&gt;" style="text;html=1;strokeColor=none;fillColor=none;align=left;verticalAlign=middle;whiteSpace=wrap;rounded=0;fontSize=25;fontColor=#36393D;" vertex="1" parent="LzhJ9Gyvr20koei1Hah8-1">
          <mxGeometry x="122" y="713" width="360" height="20" as="geometry" />
        </mxCell>
      </root>
    </mxGraphModel>
  </diagram>
</mxfile>
